HIERARCHY
ROOT Hips
{
  OFFSET -33.9132 29.2015 117.021
  CHANNELS 6 Xposition Yposition Zposition Zrotation Xrotation Yrotation
  JOINT LeftUpLeg
  {
    OFFSET 8.64259 1.95398 -2.38835
    CHANNELS 3 Zrotation Xrotation Yrotation
    JOINT LeftLeg
    {
      OFFSET 43.7702 0 0
      CHANNELS 3 Zrotation Xrotation Yrotation
      JOINT LeftFoot
      {
        OFFSET 40.6238 0 0
        CHANNELS 3 Zrotation Xrotation Yrotation
        JOINT LeftToeBase
        {
          OFFSET 12.7242 0 0
          CHANNELS 3 Zrotation Xrotation Yrotation
          End Site
          {
            OFFSET 0 0 0
          }
        }
      }
    }
  }
  JOINT RightUpLeg
  {
    OFFSET -8.2249 1.95398 -2.59336
    CHANNELS 3 Zrotation Xrotation Yrotation
    JOINT RightLeg
    {
      OFFSET 43.5653 0 0
      CHANNELS 3 Zrotation Xrotation Yrotation
      JOINT RightFoot
      {
        OFFSET 40.6238 0 0
        CHANNELS 3 Zrotation Xrotation Yrotation
        JOINT RightToeBase
        {
          OFFSET 12.7242 0 0
          CHANNELS 3 Zrotation Xrotation Yrotation
          End Site
          {
            OFFSET 0 0 0
          }
        }
      }
    }
  }
  JOINT Spine
  {
    OFFSET 0.165834 0.87714 6.61349
    CHANNELS 3 Zrotation Xrotation Yrotation
    JOINT Spine1
    {
      OFFSET 7.38963 1.71661e-005 0
      CHANNELS 3 Zrotation Xrotation Yrotation
      JOINT Spine2
      {
        OFFSET 11.9445 1.14441e-005 0
        CHANNELS 3 Zrotation Xrotation Yrotation
        JOINT Spine3
        {
          OFFSET 14.7254 4.19617e-005 0
          CHANNELS 3 Zrotation Xrotation Yrotation
          JOINT Spine4
          {
            OFFSET 10.9679 0 0
            CHANNELS 3 Zrotation Xrotation Yrotation
            JOINT RightShoulder
            {
              OFFSET 2.46616 -1.6653 3.69651
              CHANNELS 3 Zrotation Xrotation Yrotation
              JOINT RightArm
              {
                OFFSET 13.0012 0 0
                CHANNELS 3 Zrotation Xrotation Yrotation
                JOINT RightForeArm
                {
                  OFFSET 28.7848 1.62311e-005 0
                  CHANNELS 3 Zrotation Xrotation Yrotation
                  JOINT RightHand
                  {
                    OFFSET 26.5688 1.62095e-005 0
                    CHANNELS 3 Zrotation Xrotation Yrotation
                    End Site
                    {
                      OFFSET 0 0 0
                    }
                  }
                }
              }
            }
            JOINT LeftShoulder
            {
              OFFSET 2.38034 -1.29275 -3.7523
              CHANNELS 3 Zrotation Xrotation Yrotation
              JOINT LeftArm
              {
                OFFSET 16.3182 6.07031e-005 0
                CHANNELS 3 Zrotation Xrotation Yrotation
                JOINT LeftForeArm
                {
                  OFFSET 27.0901 0 0
                  CHANNELS 3 Zrotation Xrotation Yrotation
                  JOINT LeftHand
                  {
                    OFFSET 24.5451 1.51738e-005 0
                    CHANNELS 3 Zrotation Xrotation Yrotation
                    End Site
                    {
                      OFFSET 0 0 0
                    }
                  }
                }
              }
            }
            JOINT Neck
            {
              OFFSET 5.0226 -0.0266342 0
              CHANNELS 3 Zrotation Xrotation Yrotation
              JOINT Head
              {
                OFFSET 6.69364 2.86102e-005 0
                CHANNELS 3 Zrotation Xrotation Yrotation
                End Site
                {
                  OFFSET 0 0 0
                }
              }
            }
          }
        }
      }
    }
  }
}
MOTION
Frames:	18
Frame Time:	0.0416667
-275.263 94.4397 -235.963 -111.111 44.5664 -70.7609 -173.591 16.1607 93.8839 -44.3589 19.8753 0.711382 68.6024 6.33135 2.34061 17.48 -3.75159 -2.90972 167.481 -2.40444 80.2503 -74.4979 -18.1995 -3.9432 65.6218 -4.07935 -1.97269 22.2725 0.759747 7.27996 2.05215 7.58859 -90.7572 11.7308 3.72621 -1.90117 0.0635184 3.63892 -2.06345 -22.5123 4.12505 -0.691825 -2.49962 4.12505 -0.691831 96.2545 -36.5993 -93.0073 19.55 37.3567 55.3618 -46.1631 19.9193 -113.187 -21.471 9.1081 -52.0292 -80.8112 -31.2303 91.2361 -33.4172 26.0041 45.7836 42.7291 13.8239 -62.0926 11.6839 -9.98104 -71.0985 12.8062 -6.42999 -1.46397 -3.6893 -5.89923 0.484422 
-271.966 96.1824 -232.678 -110.679 43.7377 -71.0447 -174.765 15.5381 93.6985 -35.8234 23.0739 0.854044 59.7247 0.183769 2.85205 17.999 -3.48938 -2.95707 169.136 -9.4541 83.2733 -66.5026 -21.0086 -4.23985 66.1477 -4.34626 -1.88538 24.2051 -0.0249503 7.38385 2.51719 7.41453 -90.6558 12.0909 4.69443 -1.82363 0.42683 4.60964 -2.02883 -22.1757 5.025 -0.325162 -2.16307 5.02499 -0.325166 95.5605 -31.7222 -95.2152 18.2451 38.1357 60.9632 -49.0102 21.5745 -112.727 -20.9916 9.42456 -54.5151 -79.9984 -28.8427 92.6349 -32.1268 24.6863 48.6471 44.3351 10.9486 -64.6228 12.866 -11.4603 -73.7764 9.8847 -9.15012 -3.07583 -3.17364 -8.25233 0.192527 
-268.758 97.84 -229.174 -110.224 43.4947 -72.2608 -175.384 13.0903 92.7185 -23.0843 24.1641 0.377977 49.6736 -6.7839 0.798837 17.0572 -3.14758 -4.30783 170.365 -14.478 84.8718 -57.9192 -22.2015 -4.56369 68.0442 -5.77615 -2.25965 24.7533 -0.391829 7.94115 2.77378 7.33932 -90.4326 12.2401 5.30813 -1.45686 0.5789 5.23886 -1.68965 -22.0437 5.49985 0.210617 -2.03109 5.49984 0.210612 95.1688 -28.5235 -96.7381 18.3069 36.2987 63.4941 -52.9706 23.054 -111.339 -20.4259 9.46326 -55.9456 -79.1527 -28.3587 94.3025 -26.2089 21.1482 47.6144 42.8923 9.97835 -65.4528 13.6087 -12.6423 -76.3588 8.73768 -10.4832 -3.56553 -5.13556 -9.48126 -1.21817 
-264.905 99.019 -225.626 -106.514 42.8767 -75.5612 -175.621 15.2789 92.2453 -18.1353 23.5193 -0.409695 51.9224 -5.45657 -1.10329 9.94198 -11.6688 3.52233 170.999 -15.2743 86.9259 -49.0411 -18.4911 -3.14743 70.8627 -7.47719 -0.510295 25.0137 -0.6314 8.45468 2.63789 6.98739 -90.1735 12.9348 5.15432 -0.972798 1.27353 5.10653 -1.19928 -21.3436 5.20773 0.625567 -1.33094 5.20775 0.625563 94.8303 -26.7362 -97.8885 19.2398 31.5302 65.9919 -54.6579 23.0963 -110.345 -20.9886 10.0329 -57.2763 -79.9582 -28.3872 92.678 -24.5109 15.7061 49.0937 42.9838 11.0986 -66.6207 16.8049 -15.0028 -75.5173 8.28745 -10.6643 -3.89951 -7.80656 -9.53124 -2.61877 
-260.672 99.2452 -221.68 -101.878 41.8997 -79.7361 -176.308 20.4049 91.3366 -21.954 22.4716 -0.500882 56.9254 -2.151 0.668972 10.0241 -12.0117 4.19834 170.678 -12.461 88.1945 -42.616 -13.8265 -0.993925 70.8295 -7.82317 -1.83331 27.166 -1.49025 8.68138 2.41534 6.7636 -89.9501 13.37 4.81644 -0.511404 1.70777 4.78926 -0.723381 -20.8976 4.74695 0.963152 -0.884919 4.74696 0.96315 95.1325 -26.9626 -97.1878 21.1838 24.8608 68.1488 -51.7292 21.3423 -110.849 -23.8397 11.0782 -55.7344 -80.9289 -32.5534 91.1305 -19.7518 13.72 44.3778 40.3846 12.2125 -66.1486 19.251 -16.1378 -72.7239 10.921 -10.4766 -1.44371 -9.41613 -9.62287 -5.15255 
-256.039 98.4815 -217.516 -98.8696 40.4261 -82.5908 -176.636 24.7702 91.0961 -29.4818 22.2815 -0.287055 60.8195 0.87725 2.17953 13.5879 -8.31093 1.61787 171.082 -7.30494 89.8414 -41.7366 -7.75051 0.415454 71.0522 -7.75034 -2.944 23.5552 0.141171 7.69043 2.12128 6.86945 -89.7976 13.1472 4.30778 -0.127186 1.48338 4.298 -0.317021 -21.1064 4.14649 1.17565 -1.09371 4.14648 1.17565 94.8401 -30.3661 -96.9719 23.6546 18.2016 69.6043 -47.052 18.3155 -111.187 -28.1142 11.7261 -50.8042 -82.0613 -37.1455 89.5137 -16.3602 13.2466 34.8307 38.0743 13.077 -65.5087 23.3725 -17.2354 -66.6836 16.5369 -10.1352 1.05541 -10.3743 -9.68621 -6.91303 
-251.287 97.3587 -213.213 -98.4965 40.1673 -83.5112 -175.577 28.4362 91.6751 -42.6955 22.8208 -0.390024 68.2078 5.83873 2.20129 15.8113 -8.67438 4.20838 171.622 -2.00939 88.9963 -42.6517 -6.20197 0.525728 70.8042 -7.72278 -4.64699 20.592 0.995124 8.64341 1.87194 7.21252 -89.7134 12.4537 3.85582 0.128772 0.788418 3.85774 -0.0413117 -21.7887 3.63862 1.28319 -1.7761 3.63863 1.28319 93.4537 -35.362 -98.4444 26.9703 11.9156 69.0306 -44.0828 13.6088 -108.159 -34.7373 11.445 -41.1939 -84.0873 -41.8777 86.5949 -12.6295 12.2524 23.7662 34.4802 15.1133 -62.9194 23.9288 -16.5703 -63.6469 22.5043 -9.09633 2.24818 -11.3384 -9.02781 -6.73648 
-246.523 95.9798 -208.803 -100.382 40.6961 -83.6557 -173.459 29.4589 92.3108 -55.5981 22.4835 -0.458821 72.7438 8.58798 1.26401 20.2308 -6.63836 4.92003 172.065 1.95143 89.6467 -45.7726 -7.83335 -0.621167 71.2214 -8.20975 -5.76798 30.4919 -2.31997 6.73323 1.37839 7.53654 -89.7019 11.8002 2.88136 0.288749 0.132417 2.89129 0.161548 -22.4251 2.66127 1.14196 -2.41251 2.6613 1.14197 92.2317 -37.3842 -100.197 31.8159 6.83336 66.0531 -46.0516 5.71316 -101.125 -40.8759 9.69569 -31.3101 -85.9513 -46.0096 84.1981 -9.04923 10.4215 14.0804 32.9135 17.7814 -60.6726 25.1867 -17.5345 -64.0231 24.8704 -6.00972 3.42076 -11.5592 -6.50628 -6.33263 
-241.988 94.4368 -204.534 -102.546 41.7523 -83.3924 -170.698 29.2788 93.791 -67.499 21.5889 -0.0883359 72.8645 8.33197 1.06988 21.4811 -5.1523 3.40203 172.905 5.09434 88.1038 -49.3016 -9.4021 -2.32293 74.4693 -10.8136 -4.75888 36.7363 -4.37299 4.90952 0.924665 7.84845 -89.6424 11.1734 2.00666 0.515512 -0.496038 2.02737 0.426657 -23.0404 1.75892 1.09491 -3.02781 1.75892 1.09491 94.4645 -37.8 -96.0634 34.7626 6.45924 60.1222 -56.5949 -2.43127 -90.9478 -35.2752 7.53289 -29.0031 -88.2101 -47.3182 80.899 -5.23962 8.24992 1.52528 31.675 20.9851 -57.7862 29.5904 -20.9556 -65.1986 25.5912 -3.27863 3.01278 -10.7119 -3.89078 -4.99792 
-237.595 92.6598 -200.43 -103.832 42.9096 -83.6822 -167.674 28.4928 95.759 -77.3133 24.0042 0.422196 67.8716 5.85279 5.94765 22.4226 -4.55492 3.10494 173.737 9.64964 87.1512 -53.4661 -9.59025 -3.42482 78.5256 -13.7701 -3.8667 34.0284 -3.35087 5.18604 0.256973 8.01597 -89.4503 10.8374 0.765631 1.0215 -0.833671 0.809833 0.986813 -23.3665 0.423267 1.20435 -3.3539 0.423256 1.20435 95.5378 -39.6394 -93.8046 33.8403 10.0704 56.7083 -65.528 -13.7608 -84.8695 -28.1932 5.51165 -27.4233 -87.4209 -46.5214 81.9751 -3.94244 2.77791 -12.8839 33.0871 22.1812 -59.5315 26.9847 -19.3818 -65.7012 24.5011 -0.0708042 2.20497 -8.74444 -0.572488 -5.19277 
-233.539 91.614 -196.581 -102.018 43.426 -83.7534 -167.46 28.2716 99.7301 -84.2709 23.5861 1.60019 64.2905 3.57558 8.15682 25.7386 -1.81416 0.924925 174.814 15.8183 89.188 -55.702 -9.1543 -2.97028 79.2526 -14.5751 -4.53866 28.6659 -1.3293 5.66309 -0.438446 7.87771 -89.4588 11.1217 -0.621427 1.13704 -0.549707 -0.570802 1.16329 -23.0828 -0.934403 0.897743 -3.0702 -0.93442 0.897731 97.9282 -39.5415 -89.5823 32.3775 12.9406 54.0553 -72.1078 -27.0848 -82.4187 -23.9022 4.604 -27.3087 -85.9236 -42.9751 83.7527 -6.7725 -3.57865 -29.7165 34.8015 24.4294 -60.4334 29.5478 -19.8193 -62.2963 24.2981 2.32368 -1.59074 -7.75123 2.9601 -3.80099 
-230.378 91.8258 -192.965 -103.241 42.5295 -81.4292 -169.218 22.4118 103.245 -86.4941 24.7549 3.09431 61.9031 1.88615 7.88803 24.6219 -2.04053 0.256629 175.371 17.9092 90.6933 -54.8298 -7.80204 -2.49725 76.2425 -12.0026 -3.79011 26.1608 -0.535743 6.45786 -1.36828 8.00037 -89.5495 10.8866 -2.51584 1.1337 -0.782538 -2.4635 1.24336 -23.3367 -2.74017 0.324668 -3.32406 -2.74016 0.324657 99.6237 -37.8291 -86.6822 30.3741 14.836 55.412 -72.4834 -33.1545 -80.724 -23.1306 4.85767 -29.2588 -85.5656 -37.9642 83.4665 -16.4356 -12.2007 -42.8004 37.3742 26.5472 -61.97 29.5912 -19.1882 -60.6163 22.811 5.3385 -4.30183 -5.697 6.64033 -2.42467 
-227.597 92.8256 -189.165 -106.919 41.8459 -78.297 -171.017 12.0364 104.129 -84.1404 26.1714 4.55877 61.9383 1.49332 3.44732 25.5378 -1.44268 -0.100661 176.634 16.9602 91.0972 -51.5578 -8.34936 -2.99381 71.6534 -8.71149 -4.00635 23.8275 0.166024 7.22942 -2.28556 8.35834 -89.6183 10.1837 -4.37993 1.12906 -1.48051 -4.32599 1.32106 -24.0751 -4.51637 -0.242175 -4.06246 -4.51638 -0.242173 101.464 -32.6863 -83.4331 29.9867 15.1673 58.1135 -73.5654 -32.9366 -81.4323 -21.2198 5.20771 -33.3304 -86.0154 -31.7358 81.3719 -22.188 -15.3388 -50.427 36.8014 29.82 -59.1337 31.9545 -21.5798 -62.663 20.9872 8.86523 -4.51181 -3.59242 9.98217 -1.58043 
-224.764 94.6533 -184.611 -107.544 43.2933 -77.6725 -172.689 4.01614 100.78 -78.1551 28.9975 5.36762 62.2557 1.67042 2.39549 26.9101 -0.460866 -0.894818 178.877 17.4038 90.8469 -44.8178 -10.9352 -4.24715 64.3061 -3.17298 -3.3723 22.1565 1.00024 6.6348 -3.08843 8.22376 -89.6312 10.4723 -5.983 1.26014 -1.18568 -5.92169 1.52311 -23.8319 -6.08415 -0.603053 -3.81922 -6.08415 -0.603054 102.739 -28.6227 -80.8585 26.3346 16.8479 61.8961 -76.1372 -30.0781 -83.6789 -18.0151 5.17836 -38.1622 -85.8595 -24.5423 79.9081 -26.214 -17.8043 -54.8113 37.5502 32.017 -58.6156 31.8916 -20.8913 -61.1038 19.1321 12.3109 -5.4105 -4.73701 13.502 0.761045 
-221.962 97.0235 -179.861 -107.255 45.8812 -76.0674 -174.351 -1.9025 97.3133 -70.4126 29.6384 6.071 63.0109 2.24613 2.362 27.7553 0.327549 -1.91194 -179.79 15.9499 91.4149 -32.2282 -16.2155 -4.84167 55.4104 3.26344 0.125938 17.268 3.56064 5.12506 -3.35241 8.25737 -90.1754 10.3815 -6.7589 0.243749 -1.27182 -6.74158 0.542353 -23.9422 -6.5182 -1.80775 -3.92959 -6.5182 -1.80774 104.627 -23.218 -76.415 24.4649 17.73 62.8366 -73.9012 -27.4228 -83.285 -17.9358 5.55207 -40.5032 -84.9932 -19.4057 80.2191 -27.1557 -18.0099 -61.9784 32.9266 35.8543 -51.7583 33.6422 -21.6135 -60.1496 21.0917 15.288 -2.51372 -8.03711 15.4765 1.50686 
-219.246 98.7369 -174.977 -104.532 50.2551 -76.7025 -175.749 -4.35062 93.3226 -61.0525 27.1177 5.54453 63.1748 2.28613 1.74926 29.6399 0.673402 -0.701229 -179.656 15.3471 91.3207 -20.7644 -33.4431 -6.02038 57.2355 2.12753 1.70756 15.6184 4.14803 5.37632 -3.4269 8.00956 -90.616 10.8525 -7.10771 -0.560725 -0.798966 -7.12544 -0.245757 -23.4735 -6.6092 -2.68016 -3.46083 -6.60919 -2.68016 104.063 -21.4344 -77.6306 21.1549 19.2752 63.4814 -64.6793 -27.2549 -78.4919 -17.4198 5.5618 -41.6593 -82.6946 -12.773 84.0957 -26.8655 -16.1372 -66.2083 28.6943 38.9117 -45.3161 35.9069 -21.8592 -57.4463 23.7365 17.6085 -3.84291 -14.4145 17.7688 5.04742 
-216.048 99.5475 -170.073 -99.4878 56.3639 -78.9466 -176.654 -3.26262 90.5595 -51.9045 22.9603 4.4472 62.5363 1.84758 0.31535 31.5964 1.06542 0.517928 -177.61 20.4237 92.6646 -21.7367 -41.6866 -8.06963 61.7019 -0.931244 -0.286142 17.0918 3.7886 4.63392 -3.05664 7.64991 -91.1147 11.5418 -6.60218 -1.54323 -0.11295 -6.66367 -1.24995 -22.7517 -5.83242 -3.4618 -2.73909 -5.83243 -3.46181 104.079 -21.608 -77.5782 14.3373 21.87 57.9468 -61.0957 -33.3646 -73.3989 -15.2298 5.53329 -46.5865 -81.7585 -8.12436 85.3116 -23.2543 -15.0411 -65.8499 29.3172 42.4757 -43.8646 34.8567 -21.7017 -58.5085 23.9894 19.3743 -4.65084 -16.8118 19.3424 7.89491 
-212.432 99.5702 -164.9 -95.6835 63.9451 -80.5808 -177.699 -0.570264 88.3811 -45.5772 21.4303 3.69554 62.4317 1.94039 0.773629 28.6234 -0.325932 0.609 -176.213 25.6209 94.376 -25.2537 -33.2911 -6.72617 63.7313 -2.19764 0.171145 18.9422 3.01581 4.55528 -2.46417 7.41146 -91.5087 11.9956 -5.61066 -2.4012 0.334973 -5.71085 -2.15133 -22.2537 -4.62978 -3.97827 -2.24108 -4.62978 -3.97828 102.872 -23.2181 -80.4657 15.3112 21.9511 58.2694 -64.2744 -30.4728 -76.7946 -16.5988 5.65985 -44.0705 -82.6647 -11.355 83.6272 -10.7203 -15.2768 -58.2734 27.4523 40.819 -43.5525 34.4847 -21.807 -59.3107 21.8435 21.572 -2.75564 -15.0268 20.8781 8.52971 
